<svg xmlns="http://www.w3.org/2000/svg" viewBox="48 38 244 244" fill="none">
  <defs>
    <linearGradient id="badgeGrad" x1="0%" y1="0%" x2="100%" y2="100%">
      <stop offset="0%" stop-color="#0EA5E9"/>
      <stop offset="100%" stop-color="#4338CA"/>
    </linearGradient>
    <linearGradient id="badgeShine" x1="0%" y1="0%" x2="0%" y2="100%">
      <stop offset="0%" stop-color="#ffffff" stop-opacity="0.18"/>
      <stop offset="100%" stop-color="#ffffff" stop-opacity="0"/>
    </linearGradient>
  </defs>
  <circle cx="170" cy="160" r="115" fill="url(#badgeGrad)"/>
  <circle cx="170" cy="160" r="115" fill="url(#badgeShine)"/>
  <circle cx="170" cy="160" r="98" fill="none" stroke="#ffffff" stroke-opacity="0.28" stroke-width="3"/>
  <circle cx="170" cy="62" r="10" fill="#00E5FF"/>
  <circle cx="300" cy="190" r="6" fill="#ffffff" fill-opacity="0.75"/>
  <circle cx="95" cy="215" r="5" fill="#ffffff" fill-opacity="0.65"/>
  <!-- Path-based ZHS mark (no font dependency) -->
  <path fill="#ffffff" d="M98 118h94v18l-62 66h66v20H96v-18l62-66H98v-20z"/>
  <path fill="#ffffff" fill-opacity="0.9" d="M208 118h18v104h-18z"/>
  <path fill="#ffffff" fill-opacity="0.9" d="M236 118h18l28 62 28-62h18l-38 82v22h-18v-22l-38-82z"/>
</svg>
